{
	"asset":{
		"generator":"Khronos glTF Blender I/O v4.2.69",
		"version":"2.0"
	},
	"scene":0,
	"scenes":[
		{
			"name":"Scene",
			"nodes":[
				0,
				1,
				2,
				3
			]
		}
	],
	"nodes":[
		{
			"mesh":0,
			"name":"room -col",
			"scale":[
				0.5,
				1,
				8
			],
			"translation":[
				0,
				1,
				0
			]
		},
		{
			"mesh":1,
			"name":"floor -col",
			"scale":[
				6,
				1,
				6
			],
			"translation":[
				6,
				0,
				0
			]
		},
		{
			"mesh":2,
			"name":"foundation -col",
			"scale":[
				6,
				1,
				6
			],
			"translation":[
				6,
				-0.25,
				0
			]
		},
		{
			"mesh":3,
			"name":"celing -col",
			"scale":[
				6,
				1,
				6
			],
			"translation":[
				6,
				6.5,
				0
			]
		}
	],
	"meshes":[
		{
			"name":"Cube.002",
			"primitives":[
				{
					"attributes":{
						"POSITION":0,
						"NORMAL":1,
						"TEXCOORD_0":2
					},
					"indices":3
				}
			]
		},
		{
			"name":"Cube.004",
			"primitives":[
				{
					"attributes":{
						"POSITION":4,
						"NORMAL":5,
						"TEXCOORD_0":6
					},
					"indices":7
				}
			]
		},
		{
			"name":"Cube.005",
			"primitives":[
				{
					"attributes":{
						"POSITION":8,
						"NORMAL":9,
						"TEXCOORD_0":10
					},
					"indices":7
				}
			]
		},
		{
			"name":"Cube.006",
			"primitives":[
				{
					"attributes":{
						"POSITION":11,
						"NORMAL":12,
						"TEXCOORD_0":13
					},
					"indices":7
				}
			]
		}
	],
	"accessors":[
		{
			"bufferView":0,
			"componentType":5126,
			"count":166,
			"max":[
				27,
				5,
				0.75
			],
			"min":[
				-1,
				-1,
				-0.75
			],
			"type":"VEC3"
		},
		{
			"bufferView":1,
			"componentType":5126,
			"count":166,
			"type":"VEC3"
		},
		{
			"bufferView":2,
			"componentType":5126,
			"count":166,
			"type":"VEC2"
		},
		{
			"bufferView":3,
			"componentType":5123,
			"count":354,
			"type":"SCALAR"
		},
		{
			"bufferView":4,
			"componentType":5126,
			"count":24,
			"max":[
				1.25,
				0,
				1
			],
			"min":[
				-1.0833332538604736,
				-0.5,
				-1
			],
			"type":"VEC3"
		},
		{
			"bufferView":5,
			"componentType":5126,
			"count":24,
			"type":"VEC3"
		},
		{
			"bufferView":6,
			"componentType":5126,
			"count":24,
			"type":"VEC2"
		},
		{
			"bufferView":7,
			"componentType":5123,
			"count":36,
			"type":"SCALAR"
		},
		{
			"bufferView":8,
			"componentType":5126,
			"count":24,
			"max":[
				1.3333333730697632,
				0,
				1.0833333730697632
			],
			"min":[
				-1.1666666269302368,
				-1,
				-1.0833333730697632
			],
			"type":"VEC3"
		},
		{
			"bufferView":9,
			"componentType":5126,
			"count":24,
			"type":"VEC3"
		},
		{
			"bufferView":10,
			"componentType":5126,
			"count":24,
			"type":"VEC2"
		},
		{
			"bufferView":11,
			"componentType":5126,
			"count":24,
			"max":[
				1.25,
				0,
				1
			],
			"min":[
				-1.0833332538604736,
				-0.5,
				-1
			],
			"type":"VEC3"
		},
		{
			"bufferView":12,
			"componentType":5126,
			"count":24,
			"type":"VEC3"
		},
		{
			"bufferView":13,
			"componentType":5126,
			"count":24,
			"type":"VEC2"
		}
	],
	"bufferViews":[
		{
			"buffer":0,
			"byteLength":1992,
			"byteOffset":0,
			"target":34962
		},
		{
			"buffer":0,
			"byteLength":1992,
			"byteOffset":1992,
			"target":34962
		},
		{
			"buffer":0,
			"byteLength":1328,
			"byteOffset":3984,
			"target":34962
		},
		{
			"buffer":0,
			"byteLength":708,
			"byteOffset":5312,
			"target":34963
		},
		{
			"buffer":0,
			"byteLength":288,
			"byteOffset":6020,
			"target":34962
		},
		{
			"buffer":0,
			"byteLength":288,
			"byteOffset":6308,
			"target":34962
		},
		{
			"buffer":0,
			"byteLength":192,
			"byteOffset":6596,
			"target":34962
		},
		{
			"buffer":0,
			"byteLength":72,
			"byteOffset":6788,
			"target":34963
		},
		{
			"buffer":0,
			"byteLength":288,
			"byteOffset":6860,
			"target":34962
		},
		{
			"buffer":0,
			"byteLength":288,
			"byteOffset":7148,
			"target":34962
		},
		{
			"buffer":0,
			"byteLength":192,
			"byteOffset":7436,
			"target":34962
		},
		{
			"buffer":0,
			"byteLength":288,
			"byteOffset":7628,
			"target":34962
		},
		{
			"buffer":0,
			"byteLength":288,
			"byteOffset":7916,
			"target":34962
		},
		{
			"buffer":0,
			"byteLength":192,
			"byteOffset":8204,
			"target":34962
		}
	],
	"buffers":[
		{
			"byteLength":8396,
			"uri":"room.bin"
		}
	]
}
