{
	"asset":{
		"generator":"Khronos glTF Blender I/O v4.2.69",
		"version":"2.0"
	},
	"scene":0,
	"scenes":[
		{
			"name":"Scene",
			"nodes":[
				0,
				4,
				8
			]
		}
	],
	"nodes":[
		{
			"extras":{
				"booleans":{}
			},
			"mesh":0,
			"name":"room -col.004"
		},
		{
			"extras":{
				"booleans":{}
			},
			"mesh":1,
			"name":"door_panel -rigid"
		},
		{
			"extras":{
				"booleans":{}
			},
			"mesh":2,
			"name":"handle"
		},
		{
			"extras":{
				"booleans":{}
			},
			"mesh":3,
			"name":"handle.001"
		},
		{
			"children":[
				1,
				2,
				3
			],
			"extras":{
				"booleans":{}
			},
			"mesh":4,
			"name":"door_frame -col"
		},
		{
			"extras":{
				"booleans":{}
			},
			"mesh":5,
			"name":"door_panel -rigid.001"
		},
		{
			"extras":{
				"booleans":{}
			},
			"mesh":6,
			"name":"handle.002"
		},
		{
			"extras":{
				"booleans":{}
			},
			"mesh":7,
			"name":"handle.003"
		},
		{
			"children":[
				5,
				6,
				7
			],
			"extras":{
				"booleans":{}
			},
			"mesh":8,
			"name":"door_frame -col.001"
		}
	],
	"materials":[
		{
			"doubleSided":true,
			"name":"walls",
			"pbrMetallicRoughness":{
				"baseColorFactor":[
					0.12740525603294373,
					0.03594252094626427,
					0.005241997539997101,
					1
				],
				"metallicFactor":0
			}
		},
		{
			"doubleSided":true,
			"name":"rug_floor",
			"pbrMetallicRoughness":{
				"baseColorFactor":[
					0.06658825278282166,
					0.06079393997788429,
					0.08771687746047974,
					1
				],
				"metallicFactor":0,
				"roughnessFactor":0.5
			}
		},
		{
			"doubleSided":true,
			"name":"Material.001",
			"pbrMetallicRoughness":{
				"baseColorFactor":[
					0.31458380818367004,
					0.12380295246839523,
					0.028249450027942657,
					1
				],
				"metallicFactor":0
			}
		},
		{
			"doubleSided":true,
			"name":"Material.002",
			"pbrMetallicRoughness":{
				"baseColorFactor":[
					0.09831619262695312,
					0.04728548228740692,
					0.0032107108272612095,
					1
				],
				"metallicFactor":0
			}
		},
		{
			"doubleSided":true,
			"name":"Material",
			"pbrMetallicRoughness":{
				"baseColorFactor":[
					0.017828553915023804,
					0.017828553915023804,
					0.017828553915023804,
					1
				],
				"metallicFactor":0.5,
				"roughnessFactor":0.5
			}
		}
	],
	"meshes":[
		{
			"name":"Cube.020",
			"primitives":[
				{
					"attributes":{
						"POSITION":0,
						"NORMAL":1,
						"TEXCOORD_0":2
					},
					"indices":3,
					"material":0
				},
				{
					"attributes":{
						"POSITION":4,
						"NORMAL":5,
						"TEXCOORD_0":6
					},
					"indices":7,
					"material":1
				}
			]
		},
		{
			"name":"Cube.025",
			"primitives":[
				{
					"attributes":{
						"POSITION":8,
						"NORMAL":9,
						"TEXCOORD_0":10
					},
					"indices":11,
					"material":2
				},
				{
					"attributes":{
						"POSITION":12,
						"NORMAL":13,
						"TEXCOORD_0":14
					},
					"indices":15,
					"material":3
				}
			]
		},
		{
			"name":"Cube.010",
			"primitives":[
				{
					"attributes":{
						"POSITION":16,
						"NORMAL":17,
						"TEXCOORD_0":18
					},
					"indices":19,
					"material":4
				}
			]
		},
		{
			"name":"Cube.018",
			"primitives":[
				{
					"attributes":{
						"POSITION":20,
						"NORMAL":21,
						"TEXCOORD_0":22
					},
					"indices":23,
					"material":4
				}
			]
		},
		{
			"name":"Cube.024",
			"primitives":[
				{
					"attributes":{
						"POSITION":24,
						"NORMAL":25,
						"TEXCOORD_0":26
					},
					"indices":27,
					"material":4
				}
			]
		},
		{
			"name":"Cube.026",
			"primitives":[
				{
					"attributes":{
						"POSITION":28,
						"NORMAL":29,
						"TEXCOORD_0":30
					},
					"indices":31,
					"material":2
				},
				{
					"attributes":{
						"POSITION":32,
						"NORMAL":33,
						"TEXCOORD_0":34
					},
					"indices":15,
					"material":3
				}
			]
		},
		{
			"name":"Cube.027",
			"primitives":[
				{
					"attributes":{
						"POSITION":35,
						"NORMAL":36,
						"TEXCOORD_0":37
					},
					"indices":38,
					"material":4
				}
			]
		},
		{
			"name":"Cube.028",
			"primitives":[
				{
					"attributes":{
						"POSITION":39,
						"NORMAL":40,
						"TEXCOORD_0":41
					},
					"indices":42,
					"material":4
				}
			]
		},
		{
			"name":"Cube.019",
			"primitives":[
				{
					"attributes":{
						"POSITION":43,
						"NORMAL":44,
						"TEXCOORD_0":45
					},
					"indices":46,
					"material":4
				}
			]
		}
	],
	"accessors":[
		{
			"bufferView":0,
			"componentType":5126,
			"count":150,
			"max":[
				4,
				4,
				4
			],
			"min":[
				-4,
				2.384185791015625e-07,
				-4
			],
			"type":"VEC3"
		},
		{
			"bufferView":1,
			"componentType":5126,
			"count":150,
			"type":"VEC3"
		},
		{
			"bufferView":2,
			"componentType":5126,
			"count":150,
			"type":"VEC2"
		},
		{
			"bufferView":3,
			"componentType":5123,
			"count":318,
			"type":"SCALAR"
		},
		{
			"bufferView":4,
			"componentType":5126,
			"count":10,
			"max":[
				3.9000000953674316,
				0.10000026226043701,
				3.9000000953674316
			],
			"min":[
				-3.9000000953674316,
				0.09000027179718018,
				-3.9000000953674316
			],
			"type":"VEC3"
		},
		{
			"bufferView":5,
			"componentType":5126,
			"count":10,
			"type":"VEC3"
		},
		{
			"bufferView":6,
			"componentType":5126,
			"count":10,
			"type":"VEC2"
		},
		{
			"bufferView":7,
			"componentType":5123,
			"count":18,
			"type":"SCALAR"
		},
		{
			"bufferView":8,
			"componentType":5126,
			"count":72,
			"max":[
				3.0046682357788086,
				1.8891890048980713,
				-3.8686132431030273
			],
			"min":[
				1.8637409210205078,
				0.15285295248031616,
				-4.028613090515137
			],
			"type":"VEC3"
		},
		{
			"bufferView":9,
			"componentType":5126,
			"count":72,
			"type":"VEC3"
		},
		{
			"bufferView":10,
			"componentType":5126,
			"count":72,
			"type":"VEC2"
		},
		{
			"bufferView":11,
			"componentType":5123,
			"count":144,
			"type":"SCALAR"
		},
		{
			"bufferView":12,
			"componentType":5126,
			"count":8,
			"max":[
				2.9186267852783203,
				1.7582457065582275,
				-3.9063949584960938
			],
			"min":[
				1.949782371520996,
				0.28379637002944946,
				-3.9908313751220703
			],
			"type":"VEC3"
		},
		{
			"bufferView":13,
			"componentType":5126,
			"count":8,
			"type":"VEC3"
		},
		{
			"bufferView":14,
			"componentType":5126,
			"count":8,
			"type":"VEC2"
		},
		{
			"bufferView":15,
			"componentType":5123,
			"count":12,
			"type":"SCALAR"
		},
		{
			"bufferView":16,
			"componentType":5126,
			"count":864,
			"max":[
				2.235496759414673,
				0.8637893795967102,
				-3.972611665725708
			],
			"min":[
				2.0718564987182617,
				0.8140307068824768,
				-4.088990211486816
			],
			"type":"VEC3"
		},
		{
			"bufferView":17,
			"componentType":5126,
			"count":864,
			"type":"VEC3"
		},
		{
			"bufferView":18,
			"componentType":5126,
			"count":864,
			"type":"VEC2"
		},
		{
			"bufferView":19,
			"componentType":5123,
			"count":1344,
			"type":"SCALAR"
		},
		{
			"bufferView":20,
			"componentType":5126,
			"count":854,
			"max":[
				2.235496759414673,
				0.8637893795967102,
				-3.8084816932678223
			],
			"min":[
				2.0718564987182617,
				0.814030647277832,
				-3.9248602390289307
			],
			"type":"VEC3"
		},
		{
			"bufferView":21,
			"componentType":5126,
			"count":854,
			"type":"VEC3"
		},
		{
			"bufferView":22,
			"componentType":5126,
			"count":854,
			"type":"VEC2"
		},
		{
			"bufferView":23,
			"componentType":5123,
			"count":1344,
			"type":"SCALAR"
		},
		{
			"bufferView":24,
			"componentType":5126,
			"count":48,
			"max":[
				3.094204902648926,
				2.0210208892822266,
				-3.8486132621765137
			],
			"min":[
				1.7742047309875488,
				0.021021008491516113,
				-4.04861307144165
			],
			"type":"VEC3"
		},
		{
			"bufferView":25,
			"componentType":5126,
			"count":48,
			"type":"VEC3"
		},
		{
			"bufferView":26,
			"componentType":5126,
			"count":48,
			"type":"VEC2"
		},
		{
			"bufferView":27,
			"componentType":5123,
			"count":96,
			"type":"SCALAR"
		},
		{
			"bufferView":28,
			"componentType":5126,
			"count":72,
			"max":[
				1.0800857543945312,
				1.8891890048980713,
				-1.5063741207122803
			],
			"min":[
				0.920086145401001,
				0.15285295248031616,
				-2.64730167388916
			],
			"type":"VEC3"
		},
		{
			"bufferView":29,
			"componentType":5126,
			"count":72,
			"type":"VEC3"
		},
		{
			"bufferView":30,
			"componentType":5126,
			"count":72,
			"type":"VEC2"
		},
		{
			"bufferView":31,
			"componentType":5123,
			"count":144,
			"type":"SCALAR"
		},
		{
			"bufferView":32,
			"componentType":5126,
			"count":8,
			"max":[
				1.042304277420044,
				1.7582457065582275,
				-1.5924155712127686
			],
			"min":[
				0.9578678607940674,
				0.28379637002944946,
				-2.561260223388672
			],
			"type":"VEC3"
		},
		{
			"bufferView":33,
			"componentType":5126,
			"count":8,
			"type":"VEC3"
		},
		{
			"bufferView":34,
			"componentType":5126,
			"count":8,
			"type":"VEC2"
		},
		{
			"bufferView":35,
			"componentType":5126,
			"count":854,
			"max":[
				1.140462875366211,
				0.8637893795967102,
				-2.275545597076416
			],
			"min":[
				1.0240845680236816,
				0.8140307068824768,
				-2.439185857772827
			],
			"type":"VEC3"
		},
		{
			"bufferView":36,
			"componentType":5126,
			"count":854,
			"type":"VEC3"
		},
		{
			"bufferView":37,
			"componentType":5126,
			"count":854,
			"type":"VEC2"
		},
		{
			"bufferView":38,
			"componentType":5123,
			"count":1344,
			"type":"SCALAR"
		},
		{
			"bufferView":39,
			"componentType":5126,
			"count":854,
			"max":[
				0.9763331413269043,
				0.8637893795967102,
				-2.275545597076416
			],
			"min":[
				0.8599545955657959,
				0.814030647277832,
				-2.439185857772827
			],
			"type":"VEC3"
		},
		{
			"bufferView":40,
			"componentType":5126,
			"count":854,
			"type":"VEC3"
		},
		{
			"bufferView":41,
			"componentType":5126,
			"count":854,
			"type":"VEC2"
		},
		{
			"bufferView":42,
			"componentType":5123,
			"count":1344,
			"type":"SCALAR"
		},
		{
			"bufferView":43,
			"componentType":5126,
			"count":48,
			"max":[
				1.100085735321045,
				2.0210208892822266,
				-1.4168369770050049
			],
			"min":[
				0.9000856876373291,
				0.021021008491516113,
				-2.736837387084961
			],
			"type":"VEC3"
		},
		{
			"bufferView":44,
			"componentType":5126,
			"count":48,
			"type":"VEC3"
		},
		{
			"bufferView":45,
			"componentType":5126,
			"count":48,
			"type":"VEC2"
		},
		{
			"bufferView":46,
			"componentType":5123,
			"count":96,
			"type":"SCALAR"
		}
	],
	"bufferViews":[
		{
			"buffer":0,
			"byteLength":1800,
			"byteOffset":0,
			"target":34962
		},
		{
			"buffer":0,
			"byteLength":1800,
			"byteOffset":1800,
			"target":34962
		},
		{
			"buffer":0,
			"byteLength":1200,
			"byteOffset":3600,
			"target":34962
		},
		{
			"buffer":0,
			"byteLength":636,
			"byteOffset":4800,
			"target":34963
		},
		{
			"buffer":0,
			"byteLength":120,
			"byteOffset":5436,
			"target":34962
		},
		{
			"buffer":0,
			"byteLength":120,
			"byteOffset":5556,
			"target":34962
		},
		{
			"buffer":0,
			"byteLength":80,
			"byteOffset":5676,
			"target":34962
		},
		{
			"buffer":0,
			"byteLength":36,
			"byteOffset":5756,
			"target":34963
		},
		{
			"buffer":0,
			"byteLength":864,
			"byteOffset":5792,
			"target":34962
		},
		{
			"buffer":0,
			"byteLength":864,
			"byteOffset":6656,
			"target":34962
		},
		{
			"buffer":0,
			"byteLength":576,
			"byteOffset":7520,
			"target":34962
		},
		{
			"buffer":0,
			"byteLength":288,
			"byteOffset":8096,
			"target":34963
		},
		{
			"buffer":0,
			"byteLength":96,
			"byteOffset":8384,
			"target":34962
		},
		{
			"buffer":0,
			"byteLength":96,
			"byteOffset":8480,
			"target":34962
		},
		{
			"buffer":0,
			"byteLength":64,
			"byteOffset":8576,
			"target":34962
		},
		{
			"buffer":0,
			"byteLength":24,
			"byteOffset":8640,
			"target":34963
		},
		{
			"buffer":0,
			"byteLength":10368,
			"byteOffset":8664,
			"target":34962
		},
		{
			"buffer":0,
			"byteLength":10368,
			"byteOffset":19032,
			"target":34962
		},
		{
			"buffer":0,
			"byteLength":6912,
			"byteOffset":29400,
			"target":34962
		},
		{
			"buffer":0,
			"byteLength":2688,
			"byteOffset":36312,
			"target":34963
		},
		{
			"buffer":0,
			"byteLength":10248,
			"byteOffset":39000,
			"target":34962
		},
		{
			"buffer":0,
			"byteLength":10248,
			"byteOffset":49248,
			"target":34962
		},
		{
			"buffer":0,
			"byteLength":6832,
			"byteOffset":59496,
			"target":34962
		},
		{
			"buffer":0,
			"byteLength":2688,
			"byteOffset":66328,
			"target":34963
		},
		{
			"buffer":0,
			"byteLength":576,
			"byteOffset":69016,
			"target":34962
		},
		{
			"buffer":0,
			"byteLength":576,
			"byteOffset":69592,
			"target":34962
		},
		{
			"buffer":0,
			"byteLength":384,
			"byteOffset":70168,
			"target":34962
		},
		{
			"buffer":0,
			"byteLength":192,
			"byteOffset":70552,
			"target":34963
		},
		{
			"buffer":0,
			"byteLength":864,
			"byteOffset":70744,
			"target":34962
		},
		{
			"buffer":0,
			"byteLength":864,
			"byteOffset":71608,
			"target":34962
		},
		{
			"buffer":0,
			"byteLength":576,
			"byteOffset":72472,
			"target":34962
		},
		{
			"buffer":0,
			"byteLength":288,
			"byteOffset":73048,
			"target":34963
		},
		{
			"buffer":0,
			"byteLength":96,
			"byteOffset":73336,
			"target":34962
		},
		{
			"buffer":0,
			"byteLength":96,
			"byteOffset":73432,
			"target":34962
		},
		{
			"buffer":0,
			"byteLength":64,
			"byteOffset":73528,
			"target":34962
		},
		{
			"buffer":0,
			"byteLength":10248,
			"byteOffset":73592,
			"target":34962
		},
		{
			"buffer":0,
			"byteLength":10248,
			"byteOffset":83840,
			"target":34962
		},
		{
			"buffer":0,
			"byteLength":6832,
			"byteOffset":94088,
			"target":34962
		},
		{
			"buffer":0,
			"byteLength":2688,
			"byteOffset":100920,
			"target":34963
		},
		{
			"buffer":0,
			"byteLength":10248,
			"byteOffset":103608,
			"target":34962
		},
		{
			"buffer":0,
			"byteLength":10248,
			"byteOffset":113856,
			"target":34962
		},
		{
			"buffer":0,
			"byteLength":6832,
			"byteOffset":124104,
			"target":34962
		},
		{
			"buffer":0,
			"byteLength":2688,
			"byteOffset":130936,
			"target":34963
		},
		{
			"buffer":0,
			"byteLength":576,
			"byteOffset":133624,
			"target":34962
		},
		{
			"buffer":0,
			"byteLength":576,
			"byteOffset":134200,
			"target":34962
		},
		{
			"buffer":0,
			"byteLength":384,
			"byteOffset":134776,
			"target":34962
		},
		{
			"buffer":0,
			"byteLength":192,
			"byteOffset":135160,
			"target":34963
		}
	],
	"buffers":[
		{
			"byteLength":135352,
			"uri":"room.bin"
		}
	]
}
